<?xml version="1.0" standalone="no"?>
<!DOCTYPE svg PUBLIC "-//W3C//DTD SVG 20010904//EN"
 "http://www.w3.org/TR/2001/REC-SVG-20010904/DTD/svg10.dtd">
<svg version="1.0" xmlns="http://www.w3.org/2000/svg"
 width="400.000000pt" height="400.000000pt" viewBox="0 0 400.000000 400.000000"
 preserveAspectRatio="xMidYMid meet">
<metadata>
Created by potrace 1.11, written by Peter Selinger 2001-2013
</metadata>
<g transform="translate(0.000000,400.000000) scale(0.100000,-0.100000)"
fill="#000000" stroke="none">
<path d="M1936 3989 c-21 -5 -111 -51 -200 -103 -88 -51 -251 -145 -361 -209
-785 -452 -1034 -599 -1063 -628 -18 -19 -41 -52 -52 -74 -20 -40 -20 -64 -20
-975 l0 -934 22 -45 c34 -70 82 -109 269 -216 349 -199 552 -316 949 -547 223
-129 421 -240 439 -246 45 -16 120 -15 167 2 22 7 120 61 219 118 99 58 212
123 250 145 39 22 129 74 200 115 468 271 575 333 615 356 151 84 289 169 313
191 16 14 40 47 53 73 l24 47 0 939 0 938 -25 50 c-40 80 8 48 -630 416 -148
86 -286 165 -305 176 -19 10 -89 51 -155 89 -616 359 -594 349 -709 322z m944
-1408 c151 -4 -224 -7 -875 -7 -627 0 -1036 3 -910 6 336 8 1478 8 1785 1z
m-459 -263 c29 -14 78 -47 107 -73 l53 -48 -47 -49 c-27 -26 -51 -48 -55 -48
-3 0 -26 20 -50 44 -84 84 -206 89 -296 11 -101 -86 -101 -256 -1 -340 92 -78
204 -73 278 11 16 19 30 39 30 44 0 6 -35 10 -80 10 l-80 0 0 70 0 70 161 0
162 0 -6 -80 c-8 -104 -36 -166 -101 -228 -69 -65 -128 -87 -236 -87 -66 0
-96 5 -133 22 -70 32 -149 113 -183 186 -25 54 -29 74 -29 152 0 76 4 99 26
146 48 102 134 177 238 206 69 19 177 11 242 -19z m743 8 c107 -45 194 -145
222 -255 42 -168 -40 -337 -201 -417 -54 -26 -70 -29 -155 -29 -85 0 -101 3
-155 29 -266 131 -285 483 -34 642 85 53 234 67 323 30z m-2364 -116 l0 -130
120 0 120 0 0 130 0 131 72 -3 c72 -3 72 -3 71 -30 -1 -16 -1 -174 -2 -353
l-1 -325 -70 0 -70 0 0 155 0 155 -120 0 -120 0 0 -155 0 -155 -70 0 -70 0 0
355 0 355 70 0 70 0 0 -130z m640 -97 c0 -126 5 -245 10 -265 6 -20 25 -49 42
-63 28 -23 39 -27 81 -22 64 6 97 38 108 104 4 26 8 144 8 261 l1 212 71 0 70
0 -3 -267 c-3 -253 -4 -270 -25 -309 -24 -44 -75 -93 -126 -121 -23 -13 -55
-18 -112 -18 -90 0 -137 19 -193 76 -65 66 -67 77 -70 372 l-3 267 71 0 70 0
0 -227z m1112 -720 c-305 -2 -800 -2 -1100 0 -301 1 -52 2 553 2 605 0 851 -1
547 -2z"/>
<path d="M2930 2183 c-151 -80 -161 -298 -17 -387 125 -77 289 -18 326 117 42
150 -45 283 -191 294 -55 4 -70 1 -118 -24z"/>
</g>
</svg>
